PathFileType	3	(X/Y/Z)	D:\Jess\Healthy\Labelled\HA01\20250317\SRRun01.trc
DataRate	CameraRate	NumFrames	NumMarkers	Units	OrigDataRate	OrigDataStartFrame	OrigNumFrames
250.0	250.0	4	37	mm	250.0	36563	2501
Frame#	Time	C7			T10			CLAV			LSHO			RSHO			LASIS			RASIS			LPSIS			RPSIS			LILCR			RILCR			LGTR			LTHI			LLTHI			LLEP			LMEP			LPSH			LLSH			LDSH			LLMAL			LMMAL			LTOE			L5TH			LHEE			RGTR			RTHI			RLTHI			RLEP			RMEP			RPSH			RLSH			RDSH			RLMAL			RMMAL			RTOE			R5TH			RHEE			
		X1	Y1	Z1	X2	Y2	Z2	X3	Y3	Z3	X4	Y4	Z4	X5	Y5	Z5	X6	Y6	Z6	X7	Y7	Z7	X8	Y8	Z8	X9	Y9	Z9	X10	Y10	Z10	X11	Y11	Z11	X12	Y12	Z12	X13	Y13	Z13	X14	Y14	Z14	X15	Y15	Z15	X16	Y16	Z16	X17	Y17	Z17	X18	Y18	Z18	X19	Y19	Z19	X20	Y20	Z20	X21	Y21	Z21	X22	Y22	Z22	X23	Y23	Z23	X24	Y24	Z24	X25	Y25	Z25	X26	Y26	Z26	X27	Y27	Z27	X28	Y28	Z28	X29	Y29	Z29	X30	Y30	Z30	X31	Y31	Z31	X32	Y32	Z32	X33	Y33	Z33	X34	Y34	Z34	X35	Y35	Z35	X36	Y36	Z36	X37	Y37	Z37	

1564	146.248	1070.279135588794	1490.794634402436	-348.0298130818425	989.9262924136733	1266.76921944987	-348.6647408063732	1202.237203475319	1389.664400095739	-342.4611398629748	1134.96397507214	1464.646664903193	-194.352426685792	1150.667553365051	1461.439162321129	-492.1334110975081	1194.55565337949	971.5991387682225	-465.3134712613815	1199.155497970343	955.7502713895245	-212.4628848545374	997.2401197151117	1023.546258954906	-363.8954318636867	999.2910476220271	1021.210226499135	-313.3128746180147	1107.321756942542	1040.670784881566	-520.3371590178033	1118.386242183175	1028.695931520878	-153.3010387106111	1121.633183784761	884.1932746233591	-540.4182156896968	1212.20181068475	740.5241411924868	-455.1472585672016	1103.653852521681	627.9043166565571	-498.6793832164931	1088.191791696286	482.5702843252134	-472.3507496957867	nan	nan	nan	1102.978960459205	380.7187820635198	-409.867235322779	961.2846795187136	303.9714345404006	-448.8149745591779	965.3819883539505	205.4772750142851	-386.8119892598933	855.3336112469548	148.2136293155149	-402.7575721798871	nan	nan	nan	974.9773742479628	59.55043376854999	-409.2843321656289	923.0340523796839	41.12061650850583	-448.5949219106728	777.7150767446959	135.9764132083313	-342.9344608506585	1123.113246613786	862.6266225937967	-140.2608269567678	1276.526856432118	781.8432513347275	-247.3852187081557	1248.145243054149	658.8125561703575	-166.5104055373669	1282.525077623081	520.5788171044724	-183.6000247721334	nan	nan	nan	1259.270192630177	416.3848009632763	-239.6143465310961	1122.325016698121	420.1312448697171	-192.5689860982943	1078.594842707849	303.2408077719996	-243.5279854742365	975.8633267567386	283.8723584160916	-219.4687765800824	nan	nan	nan	991.8597907133241	135.7743014691411	-226.47918520172	951.8488306691806	154.7139588954424	-184.6746710875832	907.8604555721125	332.2269235690948	-278.5523030076442	
1565	146.252	1070.301774201557	1493.538297106773	-348.4133399519886	990.5246169114831	1269.24965853957	-350.2534446695174	1202.203179686098	1392.949333237694	-341.2053273730792	1132.46264025745	1467.649395800139	-193.7959904796229	1152.136071799379	1464.585774694378	-491.4961085621486	1196.659085623065	972.8773603464384	-463.9063904343553	1198.734452395139	959.2587144374843	-210.8659027915339	998.4068116247362	1026.32202777557	-365.3287217948825	999.8143178842805	1024.014362406217	-314.3662680681813	1111.039012338523	1042.46386360563	-520.0120157768476	1117.346790203524	1032.402861732328	-152.9157011446452	1123.501258865718	885.8077239137127	-539.5232644919439	1210.068339074477	740.8060728212253	-453.591629716956	1098.998325299458	630.1491836766152	-498.3908283604933	1080.93253210084	484.9935985298067	-472.5579997846573	nan	nan	nan	1094.598850191938	382.6195531971189	-410.0641005966054	952.6500302110006	306.8361264779375	-449.295539642516	956.3378497972571	207.8853717058372	-387.5896407127472	846.1692153788147	150.8387063722192	-403.7102199271955	nan	nan	nan	963.8219273704868	59.6467922508426	-409.4638912161065	911.6944612953416	41.57086420234317	-448.6379125648505	768.650956536762	140.2391225023745	-343.8667064422129	1122.043562501585	866.5562306092999	-139.0511248840206	1276.902442161273	787.3250752127777	-245.2828819538752	1250.045655074967	663.4428832964468	-166.0744166608628	1285.523279155339	525.6061737982294	-183.5761431333401	nan	nan	nan	1265.133084468645	420.0954418152059	-239.3603836418207	1128.123296802432	419.1549052217248	-192.3501399719846	1088.323365769659	300.8759573798759	-243.4998799992359	986.20643686894	277.8105614261833	-219.478310421384	nan	nan	nan	1007.816296751742	130.4740392800524	-226.517518361477	966.9883187629205	147.7687047381837	-184.7846081128957	916.5473552287042	323.6522465288396	-278.6385633487076	
1566	146.256	1070.3591166435	1496.345864325307	-348.7540647782529	991.1709571952833	1271.792606353363	-351.7928094492235	1202.168078918733	1396.298246827868	-339.9311841824475	1129.989884370219	1470.681487205637	-193.2668836351271	1153.595505866193	1467.757031001015	-490.8265822551305	1198.810507641549	974.1569364563653	-462.5549435655805	1198.408835124226	962.824429279997	-209.3644185478407	999.6961549270097	1029.177544004001	-366.7440188587871	1000.43007400792	1026.881234158032	-315.379073958255	1114.906342855787	1044.277341010502	-519.6321074217725	1116.491845095646	1036.216079359326	-152.5783350450237	1125.29877349725	887.517044820687	-538.6204451588592	1207.980083281604	741.2613452079958	-452.0464472243627	1094.402930345054	632.5692142085932	-498.0821961790915	1073.771188066156	487.7161589148118	-472.7975029482623	nan	nan	nan	1086.31161819989	384.7803967614801	-410.3476420363925	944.1255989550993	309.9417204743018	-449.8327528339658	947.5140965030931	210.4716309787705	-388.4812097921562	837.2735203899144	153.5580726248934	-404.7420545172343	nan	nan	nan	952.7618719174222	59.76740266953625	-409.6792301391112	900.4288672869513	42.07370885214516	-448.6971962479096	759.904197485034	144.7145871697122	-344.8611994937902	1121.24375927742	870.6853788643158	-137.8479333601583	1277.22322616942	792.8095749749558	-243.227698623677	1251.747234879191	668.0417037938688	-165.6410892105007	1288.157083098698	530.6092510946348	-183.5658259842003	nan	nan	nan	1270.778843749871	423.8064392171652	-239.0400227927155	1133.80583577153	418.0837991813171	-192.1762175311705	1098.14576432235	298.5081392784726	-243.4636449514581	996.7596134240996	271.7047744799511	-219.563193626983	nan	nan	nan	1024.049270210729	125.3484603698938	-226.4627470513915	982.4111865750747	140.9646659382686	-184.8623492321234	925.5860431303213	314.8620666829462	-278.915794871122	
1567	146.26	1070.452703390359	1499.196580683338	-349.0508106745328	991.8649359384489	1274.380781498666	-353.285804087746	1202.131676068584	1399.691345172158	-338.6415820661834	1127.552337393346	1473.722841917823	-192.7694392874442	1155.046696575486	1470.933971347299	-490.1267110132188	1201.000208681104	975.4493620597826	-461.2501808278648	1198.176295701313	966.4513912745049	-207.9668120470786	1001.098725881332	1032.101494869184	-368.1380944765738	1001.131855665291	1029.799996486263	-316.3539483789546	1118.917040982534	1046.110107136931	-519.1879324545125	1115.806340776868	1040.13437608212	-152.2816292368262	1127.016413264316	889.3088821861652	-537.7143193718816	1205.947210797881	741.870519686755	-450.5212129950885	1089.888392006179	635.1494829059247	-497.7476451393538	1066.701557331356	490.7223556455432	-473.0539973612106	nan	nan	nan	1078.13231408716	387.1859871919683	-410.7197268084337	935.7212437464642	313.2718794216407	-450.4179562002489	938.9280292027465	213.2242817582997	-389.4842539483145	828.6671832772585	156.3654176383527	-405.8509490141761	nan	nan	nan	941.8113959622352	59.91183480698892	-409.9290969580779	889.2530816361673	42.64034391636671	-448.7747669883341	751.4976327096382	149.3984657804391	-345.9226491594458	1120.704750643347	874.9972783395328	-136.6593466773147	1277.504474612812	798.2728352634214	-241.2455547975127	1253.249911329634	672.5854456493357	-165.215700322253	1290.431280957087	535.5442972386451	-183.567044607805	nan	nan	nan	1276.205664019448	427.4924172985452	-238.6509831017891	1139.382367793276	416.9059580820256	-192.0448395732959	1108.062770128666	296.1427950101549	-243.4151390803133	1007.526574259768	265.5766606269149	-219.7206851608644	nan	nan	nan	1040.543244012899	120.4268697824715	-226.3054546168258	998.104305557211	134.3320727131202	-184.8994105256073	934.9958996824171	305.8882318608282	-279.382605496393	
